<?xml version="1.0" encoding="UTF-8"?>
<svg id="Camada_2" xmlns="http://www.w3.org/2000/svg" version="1.1" viewBox="0 0 846.4 287.2">
  <defs>
    <style>
      .st0 { fill: #045575; }
      .st1 { fill: #c08f44; }
    </style>
  </defs>
  <g id="Camada_1-2">
    <g>
      <path class="st0" d="M196.6,8.6h-106.7c-30.3,0-55,24.7-55,55v106.7c0,30.3,24.7,55,55,55h85l38.3,53.3c-.1,0,30.4,0,29.7,0l-38.3-53.9c26.6-3.9,47-26.8,47-54.4V63.6c0-30.3-24.7-55-55-55h0ZM229,170.3c0,17.9-14.5,32.4-32.4,32.4h-7.7l-34-47.8c37.5-2,57.3-18.1,57.3-47.3v-9.4c0-32.1-23.4-49.1-67.5-49.1h-50.6c-9.7,0-19.1,4.4-19.2,20.7v97c0,16.5,10.3,20,18.7,20l6.8-.2v-119.7h44.3c27.6,0,41.7,10.2,41.7,30.5v10.4c0,20.1-14.1,30.3-41.7,30.3h-13.8c-6.3,0-10.5,3.1-10.5,8.4v.5c0,3.3,1.8,5.8,5.4,9.9l32.9,45.8h-68.8c-17.9,0-32.4-14.5-32.4-32.4V63.6c0-17.9,14.5-32.4,32.4-32.4h106.7c17.9,0,32.4,14.5,32.4,32.4v106.7h0Z"/>
      <path class="st1" d="M788.4,87.8c-1-15.1-2.7-29.2-7.8-43.2-7.7-21.2-22.1-38.4-46.3-35.8-28,3-56.3,23.7-58.3,53-3.2-22.2-27.4-38-48.6-37.9-7.7,0-14.6,3.1-20.9,6.8-9.5,5.6-16.1,13.2-23,22.5l-.3-23.4-31.5,4.4v157.9l31.5,4.2v-91.6c.7-13.9,1.7-27.4,8.6-39.3,6.5-11.1,16.4-15.1,29-15.2,21.7-.2,28.2,19.6,29.5,39.2v116.2l31.8,4.3v-112.2c1.6-11.7,3.1-22.5,7.8-33.1,6.4-14.7,16-25.6,32.5-27.2,26.3-2.4,32.4,28.3,34,50.8v132.2l31.9,4.4V87.8h0Z"/>
      <path class="st1" d="M500.5,124.7l-.8,11.2c-.3,3.9-1,8-2.2,11.7-3.8,12-17.2,9.7-29.3,8.3-22.4-2.6-31.3-15.5-31.3-37.7V50l-26,3.7v66.1c-.3,21.9,7.2,41.6,27.1,51.8,4,2,8,3.8,12.4,5.1,13.7,3.9,27.8,5.9,42,5.3,6.8-.3,13.1-2.1,18.4-6.1,11-8.4,14.5-27,15.1-40.9l.5-12V37.7l-25.9,3.5v83.4h0Z"/>
      <path class="st1" d="M301.9,68.5l-13.2,19.2,22-3,27.6-3.9,19.3-2.6-13.8,15.7-25.6,28.3-29.7,33.5,110.8,15.4c-4.6-7.3-9.8-12.5-14.5-19.2l-26.6-4.2-31.4-4.8,72.6-87.6-97.5,13.3h0Z"/>
    </g>
  </g>
</svg>
