<?xml version="1.0" encoding="UTF-8"?>
<svg id="Camada_2" data-name="Camada 2" xmlns="http://www.w3.org/2000/svg" viewBox="0 0 846.36 287.17">
  <defs>
    <style>
      .cls-1 {
        fill: #c08f44;
      }
    </style>
  </defs>
  <g id="Camada_1-2" data-name="Camada 1">
    <g>
      <path class="cls-1" d="M121.66,62.06H41.39C18.57,62.06,0,80.63,0,103.45v80.26c0,22.83,18.57,41.39,41.39,41.39h63.95l28.78,40.08c-.1,0,22.89,0,22.38,0l-28.83-40.53c19.98-2.92,35.38-20.17,35.38-40.95v-80.26c0-22.83-18.57-41.4-41.4-41.4ZM146.05,183.72c0,13.45-10.94,24.39-24.4,24.39h-5.76l-25.6-35.99c28.21-1.53,43.11-13.59,43.11-35.61v-7.08c0-24.12-17.6-36.95-50.78-36.95h-38.06c-7.28,0-14.37,3.28-14.46,15.54v72.98c0,12.45,7.75,15.08,14.07,15.08l5.11-.14v-90.07h33.34c20.76,0,31.37,7.66,31.37,22.97v7.85c0,15.12-10.61,22.78-31.37,22.78h-10.38c-4.74,0-7.9,2.3-7.9,6.32v.38c0,2.49,1.35,4.4,4.06,7.47l24.74,34.46h-51.75c-13.45,0-24.39-10.94-24.39-24.39v-80.26c0-13.45,10.94-24.4,24.39-24.4h80.26c13.45,0,24.4,10.94,24.4,24.4v80.26Z"/>
      <path class="cls-1" d="M846.29,105.18c-1.29-20.05-3.65-38.78-10.42-57.34-10.27-28.18-29.39-50.93-61.44-47.49-37.17,3.99-74.72,31.47-77.46,70.33-4.2-29.47-36.43-50.44-64.48-50.37-10.24.03-19.36,4.17-27.72,9.08-12.58,7.39-21.38,17.53-30.48,29.91l-.35-31.12-41.8,5.78v209.68s41.86,5.64,41.86,5.64l.02-121.65c.86-18.51,2.18-36.43,11.44-52.21,8.68-14.8,21.78-19.99,38.57-20.17,28.87-.32,37.39,26.06,39.15,52.11l.12,154.32,42.12,5.77.12-148.99c2.02-15.49,4.05-29.92,10.18-43.98,8.47-19.46,21.19-34.03,43.13-36.07,34.92-3.23,43.03,37.63,45.18,67.44l.05,175.52,42.28,5.8-.07-181.99Z"/>
      <path class="cls-1" d="M463.92,154.14l-1.02,14.94c-.36,5.2-1.38,10.6-2.93,15.48-5.04,15.87-22.82,12.86-38.96,10.96-29.78-3.51-41.54-20.52-41.55-50.1l-.05-90.46-34.53,4.87-.12,87.84c-.25,29.03,9.68,55.3,36.06,68.81,5.3,2.72,10.63,5.11,16.52,6.79,18.2,5.17,36.89,7.84,55.77,7.03,9.02-.39,17.45-2.73,24.46-8.06,14.67-11.16,19.2-35.91,20.05-54.28l.73-15.88.02-113.37-34.42,4.7-.03,110.75Z"/>
      <path class="cls-1" d="M200.23,79.51l-17.48,25.53,29.28-3.97,36.66-5.24,25.67-3.51-18.35,20.83-33.99,37.58-39.43,44.54,147.08,20.5c-6.05-9.68-12.96-16.54-19.28-25.55l-35.37-5.59-41.65-6.44,96.4-116.29-129.54,17.61Z"/>
    </g>
  </g>
</svg>
